<svg width="251" height="113" viewBox="0 0 251 113" fill="none" xmlns="http://www.w3.org/2000/svg">
<g clip-path="url(#clip0_10_2)">
<path d="M12.3839 2.05786H28.4919V64.6502H12.3839V2.05786Z" fill="black"/>
<path d="M41.7779 2.05786H57.8859V64.6502H41.7779V2.05786Z" fill="black"/>
<path d="M71.1718 2.05786H87.2798V64.6502H71.1718V2.05786Z" fill="black"/>
<path d="M100.566 2.05786H116.674V64.6502H100.566V2.05786Z" fill="black"/>
<path d="M129.96 2.05786H146.068V64.6502H129.96V2.05786Z" fill="black"/>
<path d="M159.354 2.05786H175.462V64.6502H159.354V2.05786Z" fill="black"/>
<path d="M188.748 2.05786H204.856V64.6502H188.748V2.05786Z" fill="black"/>
<path d="M218.142 2.05786H234.25V64.6502H218.142V2.05786Z" fill="black"/>
<path d="M12.3839 88.541H24.8959V101.997H12.3839V88.541Z" fill="black"/>
<path d="M37.7779 88.541H50.2899V101.997H37.7779V88.541Z" fill="black"/>
<path d="M63.1718 88.541H75.6838V101.997H63.1718V88.541Z" fill="black"/>
<h1 style="color:black; font-size: 20px; font-family: sans-serif">Salsabile</h1>
</g>
<defs>
<clipPath id="clip0_10_2">
<rect width="250.001" height="112.016" fill="white"/>
</clipPath>
</defs>
</svg>
